HIERARCHY
ROOT Hips
{
	OFFSET 0.000000 88.474243 0.000000
	CHANNELS 6 Xposition Yposition Zposition Zrotation Yrotation Xrotation 
	JOINT Hips_Spine
	{
		OFFSET 0.000000 0.000000 0.000000
		CHANNELS 3 Zrotation Yrotation Xrotation
		JOINT Spine
		{
			OFFSET 0.005100 8.711998 -0.691000
			CHANNELS 3 Zrotation Yrotation Xrotation
			JOINT Spine1
			{
				OFFSET -0.009200 8.660301 -1.275000
				CHANNELS 3 Zrotation Yrotation Xrotation
				JOINT Spine2
				{
					OFFSET 0.006300 9.852501 -1.857000
					CHANNELS 3 Zrotation Yrotation Xrotation
					JOINT Spine2_Neck
					{
						OFFSET 0.000000 0.000000 0.000000
						CHANNELS 3 Zrotation Yrotation Xrotation
						JOINT Neck
						{
							OFFSET 0.016300 11.420799 -0.263300
							CHANNELS 3 Zrotation Yrotation Xrotation
							End Site #name: Head
							{
								OFFSET -0.019200 9.262405 2.362500
							}
						}
					}
					JOINT Spine2_LeftShoulder
					{
						OFFSET 0.000000 0.000000 0.000000
						CHANNELS 3 Zrotation Yrotation Xrotation
						JOINT LeftShoulder
						{
							OFFSET 5.616900 6.732201 -0.345700
							CHANNELS 3 Zrotation Yrotation Xrotation
							JOINT LeftArm
							{
								OFFSET 10.664888 -0.183372 -2.440700
								CHANNELS 3 Zrotation Yrotation Xrotation
								JOINT LeftForeArm
								{
									OFFSET 27.459126 0.000000 0.000000
									CHANNELS 3 Zrotation Yrotation Xrotation
									End Site #name: LeftHand
									{
										OFFSET 21.306858 0.000000 0.000000
									}
								}
							}
						}
					}
					JOINT Spine2_RightShoulder
					{
						OFFSET 0.000000 0.000000 0.000000
						CHANNELS 3 Zrotation Yrotation Xrotation
						JOINT RightShoulder
						{
							OFFSET -5.580300 6.737503 -0.344400
							CHANNELS 3 Zrotation Yrotation Xrotation
							JOINT RightArm
							{
								OFFSET -10.679335 -0.188484 -2.383900
								CHANNELS 3 Zrotation Yrotation Xrotation
								JOINT RightForeArm
								{
									OFFSET -27.503529 0.000000 0.000000
									CHANNELS 3 Zrotation Yrotation Xrotation
									End Site #name: RightHand
									{
										OFFSET -21.306808 0.000000 0.000000
									}
								}
							}
						}
					}
				}
			}
		}
	}
	JOINT Hips_LeftUpLeg
	{
		OFFSET 0.000000 0.000000 0.000000
		CHANNELS 3 Zrotation Yrotation Xrotation
		JOINT LeftUpLeg
		{
			OFFSET 6.857700 -6.739601 0.312100
			CHANNELS 3 Zrotation Yrotation Xrotation
			JOINT LeftLeg
			{
				OFFSET -0.367590 -34.731552 -4.572400
				CHANNELS 3 Zrotation Yrotation Xrotation
				End Site #name: LeftFoot
				{
					OFFSET 0.367590 -34.656704 -6.067400
				}
			}
		}
	}
	JOINT Hips_RightUpLeg
	{
		OFFSET 0.000000 0.000000 0.000000
		CHANNELS 3 Zrotation Yrotation Xrotation
		JOINT RightUpLeg
		{
			OFFSET -6.876100 -6.733299 0.301000
			CHANNELS 3 Zrotation Yrotation Xrotation
			JOINT RightLeg
			{
				OFFSET 0.347353 -34.795158 -4.515900
				CHANNELS 3 Zrotation Yrotation Xrotation
				End Site #name: RightFoot
				{
					OFFSET -0.347353 -34.589367 -6.070300
				}
			}
		}
	}
}
MOTION
Frames: 12
Frame Time: 0.041667
0.058630 0.008201 0.012052 -0.987191 -3.629446 -1.973962 0.000000 0.000000 0.000000 0.853293 1.320778 8.318073 -0.843133 0.875063 0.400734 0.000000 0.000000 0.000000 -0.424113 -0.000466 -1.919890 1.096241 -1.792628 4.713788 -1.662324 -0.198941 0.055667 -4.885547 -5.859754 1.488991 -64.531238 3.514780 43.238141 0.193133 -23.271494 -0.335858 -0.586290 0.595202 0.398391 11.034034 -2.629736 1.847664 61.688442 23.555081 19.307684 178.843619 66.491039 179.686279 0.000000 0.000000 0.000000 -0.291316 8.126070 -16.558107 3.970852 5.578055 19.416757 0.000000 0.000000 0.000000 -1.905461 -10.129569 -11.308429 -1.679464 -3.119021 17.301457 
0.087373 0.054589 -0.044996 -1.087184 -3.330271 -1.751947 0.000000 0.000000 0.000000 -0.399330 0.464400 4.211082 -0.874899 0.523299 1.114106 0.000000 0.000000 0.000000 -0.675720 -0.226491 0.155277 2.933965 -1.470818 5.599010 -0.579741 -0.240810 1.009795 -3.685616 2.225257 0.235005 -61.681589 5.797400 48.116297 0.144808 -19.239307 0.285304 -1.216554 -0.070052 0.913344 9.997354 -1.624595 0.720099 59.182360 31.406235 5.394359 179.239604 52.412499 179.806149 0.000000 0.000000 -0.000000 0.368629 9.905487 -15.792108 3.219444 5.735123 17.869805 0.000000 0.000000 0.000000 -2.010763 -10.372544 -11.710808 -1.801845 -3.145973 17.058948 
0.196854 0.050860 -0.107449 -1.356741 -3.188619 -1.565707 0.000000 0.000000 0.000000 -0.454106 0.322445 3.564970 -0.708539 0.260315 1.711234 0.000000 0.000000 0.000000 -0.826144 -0.288868 0.545547 2.817057 -1.311446 4.971124 -0.836697 0.037466 2.150688 -5.805393 4.400332 -0.138142 -62.389041 2.765262 42.870884 0.058362 -13.618121 0.086860 -1.132470 -0.036654 1.469874 10.243492 -2.202617 0.311073 54.313559 26.294494 2.059955 179.448393 54.245811 -179.960091 0.000000 0.000000 -0.000000 0.821325 11.076885 -16.161750 3.336947 5.885199 18.010384 -0.000000 0.000000 0.000000 -1.862716 -10.209451 -11.869771 -1.432563 -3.015093 16.828728 
0.332456 0.040215 -0.175247 -1.616754 -3.091542 -1.386234 0.000000 0.000000 0.000000 -0.671481 0.593002 3.908207 -0.779869 0.138723 2.387997 0.000000 0.000000 0.000000 -0.909428 -0.269648 1.178229 1.858420 -1.713965 6.149494 -1.009137 -0.080911 2.395642 -5.271090 5.491631 -0.464877 -65.221083 -0.184554 40.106623 0.052446 -10.217652 0.142094 -1.121495 -0.066071 1.935043 9.434237 -2.658680 0.281436 50.813310 29.792049 -2.040810 179.373630 49.765643 -179.870419 -0.000000 0.000000 -0.000000 1.044571 11.623890 -16.489772 3.568545 5.997050 18.179379 -0.000000 0.000000 0.000000 -1.735802 -10.114314 -12.008992 -0.962083 -2.490186 16.853813 
0.493500 0.033528 -0.240120 -1.828385 -3.112601 -1.264761 0.000000 0.000000 0.000000 -0.846519 0.817784 4.285369 -0.995472 0.088856 2.535752 0.000000 0.000000 0.000000 -1.155812 -0.291297 1.308234 1.592808 -2.137126 7.442197 -1.168201 -0.266273 2.425994 -4.649097 5.816778 -0.503174 -67.056686 -2.099305 38.895235 0.059643 -8.534770 0.134165 -1.333735 -0.115045 2.172074 9.358404 -3.380990 0.239571 49.686208 33.551535 -3.842646 179.442981 46.071062 -179.771049 -0.000000 0.000000 -0.000000 1.167932 11.886832 -16.750945 3.661459 5.909830 18.491275 -0.000000 0.000000 0.000000 -1.681574 -9.928431 -12.083874 -0.582193 -2.207401 16.866213 
0.661616 0.029426 -0.301364 -1.976728 -3.192502 -1.182684 0.000000 -0.000000 0.000000 -0.997921 0.865426 4.476051 -1.192626 0.090123 2.567495 0.000000 0.000000 0.000000 -1.351140 -0.319133 1.356387 1.802197 -2.444005 8.322243 -1.284347 -0.385489 2.505301 -4.203686 5.631269 -0.455788 -68.374363 -3.109487 38.214083 0.082706 -7.670693 0.119540 -1.523155 -0.165373 2.216951 9.035526 -3.363734 0.269800 49.202921 35.490559 -4.776155 179.434092 44.425682 -179.712012 -0.000000 0.000000 -0.000000 1.240989 12.021464 -16.938928 3.656424 5.723592 18.805787 -0.000000 0.000000 0.000000 -1.632602 -9.766000 -12.087360 -0.343964 -2.020071 16.739701 
0.821851 0.026225 -0.360282 -2.083988 -3.257984 -1.106330 0.000000 -0.000000 0.000000 -0.994182 0.847421 4.643045 -1.288819 0.097040 2.578448 0.000000 0.000000 0.000000 -1.463821 -0.319897 1.365407 2.189305 -2.738196 8.665999 -1.376432 -0.378217 2.527090 -3.824637 5.731846 -0.463433 -69.050937 -3.533440 37.274329 0.098934 -7.724507 0.144058 -1.628992 -0.150726 2.175962 8.582666 -3.182228 0.295718 49.156125 35.963566 -4.881100 179.418433 43.701535 -179.715897 -0.000000 0.000000 -0.000000 1.272383 12.082635 -17.079150 3.610675 5.499195 18.996760 -0.000000 0.000000 0.000000 -1.581194 -9.726842 -12.119087 -0.218745 -1.823431 16.645941 
0.960102 0.022653 -0.415563 -2.180004 -3.286796 -1.023744 0.000000 -0.000000 0.000000 -0.966915 0.877323 4.733516 -1.335323 0.138815 2.564527 0.000000 0.000000 0.000000 -1.536556 -0.275650 1.358320 2.513832 -2.984045 8.978987 -1.430806 -0.307279 2.522320 -3.593855 5.920616 -0.492922 -69.233019 -3.563579 36.570249 0.103990 -8.330426 0.157178 -1.700667 -0.087272 2.130546 8.048553 -3.068243 0.312238 49.041043 35.598953 -4.933188 179.411496 43.973731 -179.729927 -0.000000 0.000000 -0.000000 1.289494 12.112484 -17.199459 3.565799 5.268505 19.060390 -0.000000 0.000000 0.000000 -1.513543 -9.750483 -12.216674 -0.166281 -1.668939 16.664629 
1.062009 0.018131 -0.465027 -2.278436 -3.308269 -0.943260 0.000000 -0.000000 0.000000 -0.964900 0.903151 4.772710 -1.358927 0.181295 2.553546 0.000000 0.000000 0.000000 -1.591447 -0.223752 1.349594 2.789510 -3.130452 9.177657 -1.473047 -0.229613 2.512628 -3.452625 6.194210 -0.532578 -69.183497 -3.276087 36.164961 0.102575 -8.884284 0.161840 -1.753798 -0.030657 2.090567 7.494774 -3.019628 0.319578 48.518046 34.940913 -5.192694 179.405679 44.490192 -179.739899 -0.000000 0.000000 -0.000000 1.313484 12.120081 -17.304021 3.528922 5.049363 19.072866 -0.000000 0.000000 0.000000 -1.431515 -9.781162 -12.341367 -0.126671 -1.559960 16.745434 
1.131019 0.013048 -0.508778 -2.365119 -3.325238 -0.878704 0.000000 -0.000000 0.000000 -0.992714 0.925077 4.823924 -1.381666 0.209085 2.537782 0.000000 0.000000 0.000000 -1.639244 -0.189466 1.324525 2.957466 -3.191388 9.268665 -1.512231 -0.176892 2.485097 -3.369445 6.444988 -0.576842 -69.033379 -2.878723 36.047768 0.098769 -9.297151 0.167930 -1.805394 0.014190 2.055164 6.992841 -3.042382 0.318997 47.642126 34.530824 -5.711089 179.396730 44.728239 -179.749354 -0.000000 0.000000 -0.000000 1.349549 12.121577 -17.382730 3.499292 4.860360 19.061118 -0.000000 0.000000 0.000000 -1.347076 -9.793441 -12.453616 -0.104516 -1.512748 16.848929 
1.170521 0.007723 -0.547411 -2.430929 -3.321599 -0.836189 0.000000 -0.000000 0.000000 -1.031902 0.948244 4.903822 -1.411119 0.224455 2.520344 0.000000 0.000000 0.000000 -1.690996 -0.171203 1.295144 3.063908 -3.205288 9.313276 -1.553720 -0.147303 2.455507 -3.294636 6.646846 -0.613957 -68.877246 -2.518654 36.116655 0.093881 -9.527205 0.171316 -1.858845 0.039044 2.026707 6.547126 -3.095677 0.316099 46.567640 34.502330 -6.560163 179.384065 44.743937 -179.752652 0.000000 0.000000 -0.000000 1.388753 12.118508 -17.437874 3.472119 4.693112 19.044128 -0.000000 0.000000 0.000000 -1.271996 -9.786109 -12.543978 -0.087775 -1.503058 16.957948 
1.183927 0.002483 -0.581898 -2.470350 -3.284471 -0.815537 0.000000 -0.000000 0.000000 -1.067155 0.967001 5.002532 -1.441924 0.231698 2.510350 0.000000 0.000000 0.000000 -1.736325 -0.159070 1.272896 3.148165 -3.200161 9.315578 -1.593323 -0.134067 2.433301 -3.224479 6.806240 -0.643074 -68.757803 -2.238996 36.235952 0.090770 -9.595452 0.177631 -1.910919 0.053595 2.012630 6.174612 -3.165826 0.306539 45.465512 34.871366 -7.666681 179.368820 44.515472 -179.761826 0.000000 0.000000 -0.000000 1.422077 12.115105 -17.472726 3.445790 4.536011 19.032999 0.000000 0.000000 0.000000 -1.215085 -9.777627 -12.599337 -0.069884 -1.498187 17.044800 
